<svg xmlns="http://www.w3.org/2000/svg" width="256" height="256"><path fill-opacity=".016" d="M0 128.004v128.004l128.25-.254 128.25-.254.254-127.75L257.008 0H0v128.004m.485.496c0 70.4.119 99.053.265 63.672.146-35.38.146-92.98 0-128C.604 29.153.485 58.1.485 128.5" fill="#1976D2" fill-rule="evenodd"/><path fill-opacity=".239" d="M0 113.887c0 89.26.154 98.958 1.582 99.506.87.334 11.207.607 22.971.607h21.389l.279 13.25.279 13.25 81.75.256 81.75.256-.029-58.256-.029-58.256 16.378-16c9.008-8.8 19.368-19.241 23.022-23.203l6.644-7.203.264 67.203c.145 36.962.269 22.428.274-32.297.005-54.725-.118-87.111-.273-71.97l-.282 27.531-11.78-11.781C233.315 45.906 232.118 45 228.638 45c-4.911 0-7.048 1.17-13.388 7.33L210 57.432v-7.197c0-6.63-.177-7.241-2.25-7.759-1.238-.309-11.576-.43-22.974-.269l-20.725.293-.275-13.5-.276-13.5-81.75-.256L0 14.988v98.899m.481.113c0 54.725.121 77.112.269 49.75.148-27.363.148-72.138 0-99.5C.602 36.887.481 59.275.481 114M5 114v94h32.836l-.168-12.25-.168-12.25-5-.313c-3.392-.213-5.723-.993-7.25-2.425-2.131-1.999-2.25-2.87-2.25-16.482 0-13.925.076-14.447 2.455-16.825 1.94-1.941 3.484-2.455 7.368-2.455h4.914l-.118-5.25-.119-5.25-5-.313c-3.392-.213-5.723-.993-7.25-2.425-2.131-1.999-2.25-2.87-2.25-16.482 0-13.925.076-14.447 2.455-16.825C27.392 96.518 28.94 96 32.801 96h4.891v-4c0-3.982-.017-4-3.896-4-4.436 0-9.257-2.154-10.175-4.545-1.018-2.653-.704-28.432.371-30.441 1.196-2.234 6.933-4.283 10.745-3.837 2.742.321 2.765.273 3.057-6.177.162-3.575.486-7.062.719-7.75.333-.981 13.223-1.25 59.956-1.25H158V20H5v94m47 28v94h153v-73.733l-17.033 10.116-17.032 10.117 5.282.5c3.807.36 5.283.919 5.283 2 0 1.192-1.949 1.605-9.5 2.011-8.453.454-10.139.878-15.301 3.852-5.135 2.958-5.605 3.485-4.097 4.588.937.685 1.383 1.764.992 2.397-.929 1.503-31.187 1.619-32.111.124-.616-.996-8.769-.531-10.608.605-.481.298-.875 1.66-.875 3.027 0 1.368-1.105 3.591-2.455 4.941C105.172 208.919 104.627 209 91 209c-13.627 0-14.172-.081-16.545-2.455-2.371-2.37-2.455-2.929-2.455-16.365 0-12.558.201-14.166 2.073-16.545 2.07-2.632 2.091-2.635 16.671-2.635 11.453 0 14.949.317 16.226 1.473 1.48 1.339 1.976.454 5.471-9.75 3.605-10.53 4.249-11.64 10.424-17.973l6.581-6.75h-3.723c-3.056 0-3.723-.358-3.723-2 0-1.768.667-2 5.759-2h5.758l21.234-21.25 21.233-21.25h-26.742c-26.075 0-26.742-.05-26.742-2 0-1.949.735-2.005 28.941-2.205l28.941-.206 12.309-12.279L205 62.53V48H52v94m22-62c-1.816 1.816-2 3.333-2 16.5 0 19.882.019 19.898 21.492 19.334 16.942-.446 16.508.065 16.508-19.445C110 77.127 110.902 78 91 78c-13.667 0-15.178.178-17 2m48 21c0 1.993.447 2.043 15.75 1.775 13.211-.231 15.75-.517 15.75-1.775s-2.539-1.544-15.75-1.775C122.447 98.957 122 99.007 122 101m-47.545 25.455c-2.379 2.378-2.455 2.9-2.455 16.825 0 19.337-.631 18.72 19.14 18.72 19.385 0 18.86.508 18.86-18.233 0-7.482-.28-14.332-.621-15.222-1.344-3.502-5.791-4.545-19.375-4.545-12.57 0-13.193.098-15.549 2.455m46.115 29.607c-.281.791-2.264 6.465-4.406 12.608l-3.895 11.17 4.62 4.551 4.62 4.55 11.996-4.145c6.597-2.279 12.18-4.288 12.406-4.464 1.017-.793-3.387-4.25-5.765-4.526-1.993-.23-2.595-.816-2.44-2.372.267-2.689-16.362-19.547-17.136-17.372" fill="#1976D2" fill-rule="evenodd"/><path fill-opacity=".152" d="M.461 16.25C.199 16.938.1 61.375.242 115L.5 212.5l23 .5 23 .5.278 13.75.278 13.75H210V124.556l22.5-22.578c12.375-12.418 22.608-23.23 22.739-24.028.132-.797.474 28.925.761 66.05.485 62.83.522 60.685.534-31 .008-54.175-.233-85.9-.534-70.5-.301 15.4-.649 27.299-.774 26.442-.318-2.189-21.226-22.527-24.063-23.407-4.527-1.404-8.951.375-15.106 6.072l-5.963 5.521-.297-6.814-.297-6.814-23-.5-23-.5-.208-12.5c-.115-6.875-.228-13.062-.25-13.75-.033-.989-16.937-1.25-81.073-1.25-63.905 0-81.132.264-81.508 1.25M.481 114c0 54.175.121 76.337.269 49.25.148-27.088.148-71.413 0-98.5C.602 37.662.481 59.825.481 114m4.518.25-.001 94.25 20.501-.289 20.501-.29V183h-9.045c-8.271 0-9.256-.21-11.5-2.455C23.1 178.191 23 177.56 23 165.093c0-7.586.474-14.039 1.138-15.496 1.506-3.305 5.584-4.597 14.511-4.597H46v-11h-9.045c-8.271 0-9.256-.21-11.5-2.455C23.1 129.191 23 128.56 23 116.093c0-7.586.474-14.039 1.138-15.496C25.644 97.292 29.722 96 38.649 96H46l-.008-4.25-.009-4.25-9.241-.279c-8.446-.255-9.436-.497-11.492-2.806C23.156 82.064 23 80.966 23 68.579c0-11.95.212-13.578 2.073-15.944C27.05 50.121 27.579 50 36.573 50 45.199 50 46 49.837 46 48.082 46 42.701 42.679 43 102.462 43h55.249l.637-6.75c.351-3.712.641-8.887.645-11.5L159 20H5l-.001 94.25m46.246 27.763.255 94.012 76.75.238 76.75.237-.01-53.5-.011-53.5-27.569 27.651-27.569 27.651-19.92 6.849c-19.132 6.578-19.92 6.954-19.921 9.488 0 1.452-.86 3.702-1.912 5-1.855 2.292-2.351 2.361-16.964 2.361-19.597 0-18.521 1.023-18.947-18.005-.321-14.307-.3-14.462 2.204-16.967 2.46-2.46 2.899-2.528 16.351-2.528 10.636 0 14.314.344 15.953 1.492 2.088 1.463 2.212 1.259 6.299-10.331l4.169-11.822 43.923-43.915L205 62.509V48H50.99l.255 94.013m-22.81-85.705c-.276.72-.374 6.682-.218 13.25L28.5 81.5l4.5.295 4.5.294V55h-4.281c-2.605 0-4.478.512-4.784 1.308m179.049 11.709-3.922 4.016 12.943 12.972 12.943 12.972 4.29-4.211 4.29-4.21-12.75-12.778C218.266 69.75 212.276 64 211.967 64c-.308 0-2.326 1.807-4.483 4.017m-47.61 47.733-39.592 39.75-4.198 12.429-4.199 12.429 4.496 4.497 4.497 4.497 11.311-3.827c6.221-2.104 12.153-4.254 13.183-4.776 1.803-.915 1.794-1.027-.25-3.071-1.167-1.167-3.126-2.134-4.354-2.15-1.373-.017-2.373-.75-2.598-1.906-.472-2.424 13.418-16.61 16.305-16.651 2.934-.043 8.484-5.399 7.916-7.642-.341-1.349 6.765-9.045 27.066-29.315l27.529-27.486-8.221-8.264c-4.521-4.545-8.463-8.264-8.76-8.264-.296 0-18.355 17.887-40.131 39.75M74.073 80.635C72.213 82.999 72 84.629 72 96.5s.213 13.501 2.073 15.865L76.145 115h29.71l2.072-2.635c1.86-2.364 2.073-3.994 2.073-15.865s-.213-13.501-2.073-15.865L105.855 78h-29.71l-2.072 2.635m3.373 3.644c-.282.736-.385 6.711-.229 13.279L77.5 109.5h27l.288-8.5.288-8.5-7.311 7.25c-4.022 3.988-7.998 7.25-8.836 7.25C86.93 107 80 99.872 80 97.815c0-2.773 2.828-2.831 6.045-.124l3.099 2.608 6.345-6.288c4.446-4.406 6.839-6.099 7.994-5.656 1.323.508 1.586.09 1.333-2.111L104.5 83.5l-13.27-.279c-10.355-.218-13.383.015-13.784 1.058m-48.779 18.388c-.834.833-.886 22.598-.06 24.751.408 1.062 1.868 1.582 4.446 1.582h3.839l.304-13.502.304-13.501-4.083.001c-2.246.001-4.384.302-4.75.669m48.227 22.408C72.839 126.624 72 129.883 72 144.093c0 12.467.1 13.098 2.455 15.452C76.828 161.919 77.373 162 91 162c13.627 0 14.172-.081 16.545-2.455 2.364-2.363 2.455-2.955 2.455-15.944 0-12.814-.121-13.63-2.411-16.295-2.388-2.779-2.533-2.808-15.25-3.016-7.061-.116-14.011.237-15.445.785m.8 5.564c-.974.975-.84 23.582.15 25.142.608.959 4.068 1.21 13.734 1l12.922-.281.288-8.5.288-8.5-7.311 7.25c-4.022 3.988-7.998 7.25-8.836 7.25-2.054 0-8.929-7.154-8.929-9.292 0-2.402 2.969-2.123 6.369.598l2.869 2.296 5.533-5.801c3.757-3.938 6.309-5.801 7.948-5.801 2.043 0 2.365-.422 2.097-2.75l-.316-2.75-13.056-.278c-7.18-.152-13.368.035-13.75.417m-49.027 21.028c-.834.833-.886 22.598-.06 24.751.408 1.062 1.868 1.582 4.446 1.582h3.839l.304-13.502.304-13.501-4.083.001c-2.246.001-4.384.302-4.75.669M78.2 177.2c-1.513 1.513-1.679 24.386-.184 25.31 1.774 1.096 25.17.704 26.315-.441.759-.759.421-1.069-1.162-1.069-3.336 0-3.46-1.794-.688-9.945 2.773-8.153 3.143-12.031 1.319-13.855-.795-.795-5.111-1.2-12.8-1.2-7.689 0-12.005.405-12.8 1.2" fill="#1976D2" fill-rule="evenodd"/><path fill-opacity=".704" d="M.463 16.244C.2 16.935.1 61.375.242 115L.5 212.5l23.222.268 23.222.269.278 13.731.278 13.732h162l.258-57.962.258-57.961 22.492-22.629c12.371-12.446 22.6-23.488 22.732-24.538.131-1.051.473 28.69.76 66.09.488 63.715.522 61.793.534-30.5.007-54.175-.233-85.675-.534-70-.301 15.675-.649 27.692-.773 26.705-.282-2.229-17.728-20.396-21.422-22.306-1.488-.769-4.567-1.399-6.842-1.399-3.703 0-4.803.64-10.503 6.114l-6.368 6.114-.296-7.364-.296-7.364-23.222-.268-23.222-.269-.278-13.731L162.5 15.5l-80.779-.256c-64.094-.203-80.878.004-81.258 1M.481 114c0 54.175.121 76.337.269 49.25.148-27.088.148-71.413 0-98.5C.602 37.662.481 59.825.481 114m3.98-93.75c-.262.688-.361 43.325-.219 94.75l.258 93.5 21.25.27 21.25.27V183h-8.566c-8.157 0-12.044-.967-13.669-3.4-.404-.605-.741-7.668-.75-15.695-.019-18.31-.32-17.905 13.314-17.905H47v-12h-8.566c-8.157 0-12.044-.967-13.669-3.4-.404-.605-.741-7.668-.75-15.695C23.996 96.595 23.695 97 37.329 97H47V87h-9.277C23.752 87 24 87.326 24 68.943 24 49.851 23.895 50 37.437 50h9.436l.314-3.25.313-3.25 55.75-.258 55.75-.259V19H81.969c-60.705 0-77.133.265-77.508 1.25M51 142v95.012l77.25-.256 77.25-.256.259-53.25c.142-29.288-.08-53.25-.494-53.25-.413 0-12.905 12.139-27.758 26.975L150.5 183.95l-17.108 5.952C108.777 198.466 109 198.358 109 201.794c0 5.503-2.06 6.206-18.174 6.206C71.996 208 73 209.023 73 189.826 73 171.001 71.984 172 91.129 172c9.922 0 14.848.377 15.671 1.2 1.81 1.81 2.666.368 6.653-11.2l3.618-10.5 44.512-44.552 44.513-44.552-.298-7.448-.298-7.448-77.25-.256L51 46.988V142m168.906-87.315-5.009 4.685 13.277 13.305 13.278 13.305 4.774-4.703c7.345-7.234 6.986-8.608-5.493-21.045-12.305-12.263-13.35-12.541-20.827-5.547m-190.686.15c-.96.615-1.21 4.179-1 14.243L28.5 82.5h18V54.898l-8-.442c-4.4-.242-8.576-.072-9.28.379m178 12.441-4.196 4.275 13.474 13.447 13.474 13.446L234.5 94l4.529-4.445-13.251-13.277C218.49 68.975 212.278 63 211.972 63c-.306 0-2.444 1.924-4.752 4.276m-47.341 47.475L120.27 154.5l-4.078 12.5c-6.822 20.911-8.155 25.371-7.713 25.812.233.233 2.699-.394 5.48-1.394l5.056-1.818-3.758-4.011-3.757-4.011 4.675 4.163 4.675 4.162 12.825-4.499 12.825-4.499 39.726-39.673 39.725-39.674-2.69-2.808-2.69-2.808-27.542 27.529C177.881 138.612 164.927 151 164.243 151c-3.79 0 1.364-6.095 26-30.743L217.486 93l-8.999-8.999-8.998-8.999-39.61 39.749M75 80c-1.822 1.822-2 3.333-2 16.943C73 115.889 72.114 115 91 115c18.933 0 18 .958 18-18.5 0-19.481.966-18.5-18.223-18.5-12.444 0-13.971.194-15.777 2m3.22 2.843c-.96.609-1.21 4.168-1 14.235l.28 13.422h27l.285-9.5.285-9.5-8.026 7.967-8.025 7.968-4.51-4.426c-4.899-4.808-5.32-5.76-2.949-6.67.945-.363 2.725.517 4.517 2.235l2.958 2.834 6.399-6.343c4.331-4.292 6.912-6.146 7.983-5.735 1.251.48 1.583-.099 1.583-2.754 0-2.143-.573-3.582-1.582-3.969-2.356-.904-23.717-.704-25.198.236m-49.784 19.462c-.275.718-.374 6.906-.218 13.75L28.5 128.5l9.25.288 9.25.287V101h-9.031c-6.508 0-9.172.365-9.533 1.305m46.219 24.524c-1.381 1.525-1.652 4.219-1.64 16.25.009 7.931.346 14.916.75 15.521 1.763 2.641 5.613 3.4 17.235 3.4s15.472-.759 17.235-3.4c.404-.605.741-7.712.75-15.793.019-18.713.963-17.807-18.553-17.807-12.411 0-14.323.222-15.777 1.829m2.792 3.447c-.281.734-.385 6.935-.229 13.779L77.5 156.5l13.75.278 13.75.278v-18.509l-7.985 7.938-7.984 7.937-3.745-3.461c-5.86-5.416-6.431-6.584-3.726-7.622.945-.363 2.725.517 4.517 2.235l2.958 2.834 6.399-6.343c4.473-4.433 6.895-6.153 8.043-5.712 1.373.526 1.592.015 1.333-3.111l-.31-3.742-13.27-.279c-10.341-.218-13.383.015-13.783 1.055m-49.011 21.029c-.275.718-.374 6.906-.218 13.75L28.5 177.5l9.25.288 9.25.287V150h-9.031c-6.508 0-9.172.365-9.533 1.305m117.291 13.467c-4.25 4.275-7.727 8.298-7.727 8.941 0 3.403 2.968 1.78 10.568-5.781 6.429-6.396 8.108-8.617 7.273-9.624-.597-.719-1.379-1.308-1.737-1.308-.358 0-4.128 3.497-8.377 7.772m-68.28 12.504c-.281.734-.385 6.935-.229 13.779L77.5 203.5h13.486c12.049 0 13.523-.187 13.824-1.75.233-1.212-.3-1.75-1.737-1.75-2.586 0-2.587-1.09-.011-8.717 1.204-3.566 1.932-7.91 1.75-10.444l-.312-4.339-13.27-.279c-10.341-.218-13.383.015-13.783 1.055" fill="#1976D2" fill-rule="evenodd"/></svg>